<?xml version="1.0" encoding="iso-8859-1"?>
<!-- Uploaded to: SVG Repo, www.svgrepo.com, Generator: SVG Repo Mixer Tools -->
<!DOCTYPE svg PUBLIC "-//W3C//DTD SVG 1.1//EN" "http://www.w3.org/Graphics/SVG/1.1/DTD/svg11.dtd">
<svg fill="#000000" height="800px" width="800px" version="1.1" id="Capa_1" xmlns="http://www.w3.org/2000/svg" xmlns:xlink="http://www.w3.org/1999/xlink" 
	 viewBox="0 0 297 297" xml:space="preserve">
<g>
	<path d="M7.766,266.397l74.854,16.736c5.367,1.2,9.759-2.318,9.759-7.818V70.089c0-5.5-4.392-10.981-9.759-12.182L12.101,42.14
		c-2.938-0.658-6.024,0.057-8.378,1.942C1.37,45.967,0,48.818,0,51.834v204.87C0,261.355,3.227,265.383,7.766,266.397z"/>
	<path d="M260.943,74.663c0-35.725-29.053-64.787-64.764-64.787s-64.764,29.063-64.764,64.787
		c0,51.601,55.822,101.356,58.199,103.45c1.877,1.651,4.22,2.479,6.565,2.479s4.688-0.827,6.565-2.479
		C205.122,176.02,260.943,126.264,260.943,74.663z M196.18,98.545c-13.092,0-23.743-10.713-23.743-23.882
		c0-13.169,10.651-23.882,23.743-23.882c13.093,0,23.744,10.713,23.744,23.882C219.924,87.832,209.273,98.545,196.18,98.545z"/>
	<path d="M284.9,286.885c0.717,0.161,1.443,0.239,2.166,0.239c2.236,0,4.433-0.756,6.211-2.181c2.354-1.886,3.723-4.737,3.723-7.752
		V72.32c0-4.651-3.228-8.679-7.766-9.693l-15.941-3.564c1.017,5.045,1.558,10.261,1.558,15.601
		c0,24.548-10.417,50.991-30.959,78.593c-15.006,20.163-30.264,33.804-31.959,35.297c-2.571,2.262-5.579,3.906-8.8,4.889v65.162
		c0,5.5,4.392,10.982,9.759,12.182L284.9,286.885z"/>
	<path d="M189.227,193.441c-3.222-0.983-6.23-2.629-8.804-4.893c-1.691-1.489-16.948-15.13-31.955-35.293
		c-20.542-27.602-30.958-54.045-30.958-78.593c0-5.61,0.602-11.082,1.723-16.364c0,0-2.913,0.636-6.474,1.412
		c-3.561,0.777-6.474,5.913-6.474,11.413v205.205c0,5.5,4.396,9.04,9.77,7.867l63.402-13.838c5.373-1.173,9.77-6.633,9.77-12.133
		V193.441z"/>
</g>
</svg>